<svg width="623" height="430" viewBox="0 0 623 430" fill="none" xmlns="http://www.w3.org/2000/svg">
<g clip-path="url(#clip0)">
<path d="M56.3058 187.801C44.7719 197.219 63.6454 279.892 63.6454 279.892C63.6454 279.892 67.8395 405.994 76.752 411.75C85.6645 417.505 105.587 411.226 113.451 410.18C121.314 409.133 114.499 331.17 102.965 302.391C91.4314 273.613 100.344 231.753 100.344 231.753L162.731 243.788C162.731 243.788 124.984 275.706 126.557 282.508C128.13 289.31 168.498 312.333 175.838 313.38C183.178 314.426 197.333 271.52 209.915 242.218C222.498 212.916 123.936 194.08 123.936 194.08L110.305 168.441C110.305 168.441 67.8396 178.382 56.3058 187.801Z" fill="#323347"/>
<path d="M87.6175 413.921C87.6175 413.921 83.8131 427.21 87.6175 427.21C91.4219 427.21 98.3965 431.007 109.176 429.742C119.955 428.476 116.784 415.187 109.176 413.288C101.567 411.39 103.469 396.202 103.469 396.202C100.933 391.139 88.8856 397.467 88.8856 397.467L87.6175 413.921Z" fill="#323347"/>
<path d="M141.628 308.243C141.628 308.243 135.102 320.433 138.82 321.234C142.539 322.034 148.555 327.214 159.359 328.245C170.163 329.277 169.872 315.619 162.835 312.162C155.799 308.705 160.867 294.259 160.867 294.259C159.458 288.776 146.344 292.427 146.344 292.427L141.628 308.243Z" fill="#323347"/>
<path d="M63.3833 74.5181C64.4318 76.611 59.7134 102.773 59.7134 102.773L63.9076 110.099C63.9076 110.099 88.0237 100.68 84.3539 99.1106C80.684 97.5409 81.2083 78.1808 81.2083 78.1808C81.2083 78.1808 62.3348 72.4251 63.3833 74.5181Z" fill="#FFB9B9"/>
<path d="M72.4603 82.5825C90.2133 82.5825 104.605 68.2189 104.605 50.5004C104.605 32.7819 90.2133 18.4182 72.4603 18.4182C54.7073 18.4182 40.3157 32.7819 40.3157 50.5004C40.3157 68.2189 54.7073 82.5825 72.4603 82.5825Z" fill="#323347"/>
<path d="M70.2434 33.7416C77.5895 33.7416 83.5447 27.798 83.5447 20.4662C83.5447 13.1344 77.5895 7.19083 70.2434 7.19083C62.8974 7.19083 56.9422 13.1344 56.9422 20.4662C56.9422 27.798 62.8974 33.7416 70.2434 33.7416Z" fill="#323347"/>
<path d="M76.0627 26.479C76.523 26.5267 76.9855 26.5507 77.4483 26.5508C79.195 26.5508 80.9247 26.2074 82.5384 25.5403C84.1522 24.8731 85.6185 23.8952 86.8537 22.6625C88.0888 21.4298 89.0686 19.9663 89.737 18.3557C90.4055 16.745 90.7495 15.0187 90.7495 13.2754C90.7495 11.532 90.4055 9.80576 89.737 8.19512C89.0686 6.58447 88.0888 5.12101 86.8537 3.88827C85.6185 2.65554 84.1522 1.67768 82.5384 1.01053C80.9247 0.343378 79.195 -5.19559e-08 77.4483 0C76.9855 0.000118787 76.523 0.0240748 76.0627 0.0717746C79.3327 0.413713 82.3599 1.95223 84.5603 4.39047C86.7607 6.82872 87.9784 9.99392 87.9784 13.2754C87.9784 16.5569 86.7607 19.7221 84.5603 22.1603C82.3599 24.5986 79.3327 26.1371 76.0627 26.479Z" fill="#323347"/>
<path d="M73.3443 88.1225C85.5051 88.1225 95.3634 78.2833 95.3634 66.1462C95.3634 54.009 85.5051 44.1698 73.3443 44.1698C61.1835 44.1698 51.3252 54.009 51.3252 66.1462C51.3252 78.2833 61.1835 88.1225 73.3443 88.1225Z" fill="#F0B8B8"/>
<path d="M41.6263 99.8955C34.8108 101.465 23.277 118.209 23.277 118.209L41.6263 136.523C41.6263 136.523 54.7329 185.708 56.3057 187.801C66.6096 201.513 112.926 171.057 112.926 171.057C112.926 171.057 111.091 156.144 112.14 148.819C113.148 141.774 108.208 127.628 108.208 127.628C108.208 127.628 125.509 120.302 121.839 112.977C118.169 105.651 95.6255 88.9074 86.1888 94.663C76.7521 100.419 57.8785 94.663 57.8785 94.663C57.8785 94.663 48.4417 98.3257 41.6263 99.8955Z" fill="#E8E7E8"/>
<path d="M175.576 205.329C175.576 205.329 205.459 230.969 212.799 225.736C220.138 220.504 184.488 202.19 184.488 202.19L175.576 205.329Z" fill="#FFB9B9"/>
<path d="M41.3642 196.434C45.5583 201.144 65.4804 189.109 62.9263 183.764C60.3722 178.42 44.5098 189.109 44.5098 189.109C44.5098 189.109 37.1701 191.725 41.3642 196.434Z" fill="#FFB9B9"/>
<path d="M41.6263 125.534L19.6072 166.348C19.6072 166.348 44.7719 187.277 47.9174 187.801C51.063 188.324 41.6263 201.928 41.6263 201.928C41.6263 201.928 13.316 182.045 2.30646 172.103C-8.70309 162.162 23.277 118.209 23.277 118.209L32.7138 112.453L41.6263 125.534Z" fill="#E8E7E8"/>
<path d="M105.587 123.965L131.276 163.731C131.276 163.731 170.595 207.684 175.838 209.777C181.081 211.87 187.372 201.928 187.372 201.928L140.188 144.895L122.363 112.977L115.548 110.36L105.587 123.965Z" fill="#E8E7E8"/>
<path d="M72.4603 53.3108C84.7038 53.3108 94.629 47.3672 94.629 40.0354C94.629 32.7036 84.7038 26.76 72.4603 26.76C60.2169 26.76 50.2916 32.7036 50.2916 40.0354C50.2916 47.3672 60.2169 53.3108 72.4603 53.3108Z" fill="#323347"/>
<path d="M134.651 326.467C133.924 326.468 133.228 326.756 132.714 327.269C132.2 327.781 131.911 328.477 131.91 329.202V422.49C131.911 423.215 132.2 423.911 132.714 424.423C133.228 424.936 133.924 425.224 134.651 425.225H453.368C454.094 425.224 454.791 424.936 455.304 424.423C455.818 423.91 456.107 423.215 456.108 422.49V329.202C456.107 328.477 455.818 327.781 455.304 327.269C454.791 326.756 454.094 326.467 453.368 326.467L134.651 326.467Z" fill="#E6E6E6"/>
<path d="M138.778 418.371H449.24V333.321H138.778V418.371Z" fill="#323347"/>
<path d="M410.052 400.727C409.456 400.726 408.865 400.843 408.313 401.07C407.762 401.298 407.261 401.631 406.839 402.052C406.417 402.473 406.082 402.973 405.853 403.523C405.625 404.073 405.507 404.662 405.507 405.258C405.507 405.853 405.625 406.443 405.853 406.993C406.082 407.543 406.417 408.043 406.839 408.463C407.261 408.884 407.762 409.218 408.313 409.445C408.865 409.672 409.456 409.789 410.052 409.788H428.21C429.414 409.788 430.569 409.311 431.42 408.461C432.272 407.612 432.75 406.459 432.75 405.258C432.75 404.056 432.272 402.904 431.42 402.054C430.569 401.204 429.414 400.727 428.21 400.727H410.052Z" fill="#EF9444"/>
<path d="M432.75 391.939H223.136V393.131H432.75V391.939Z" fill="#E6E6E6"/>
<path d="M179.32 402.235C193.923 402.235 205.76 390.42 205.76 375.846C205.76 361.272 193.923 349.457 179.32 349.457C164.717 349.457 152.879 361.272 152.879 375.846C152.879 390.42 164.717 402.235 179.32 402.235Z" fill="#EF9444"/>
<path d="M223.467 385.283L222.805 384.291L244.587 369.797L259.523 376.953L281.008 363.254L323.745 381.449L357.779 364.763L390.828 378.135L432.354 341.426L433.146 342.319L391.065 379.518L357.826 366.068L323.78 382.76L281.119 364.597L259.606 378.315L244.683 371.167L223.467 385.283Z" fill="#EF9444"/>
<path d="M227.018 401.35C226.508 401.35 226.002 401.449 225.531 401.644C225.059 401.838 224.631 402.123 224.27 402.483C223.909 402.843 223.622 403.27 223.427 403.741C223.232 404.211 223.131 404.715 223.131 405.224C223.131 405.734 223.232 406.238 223.427 406.708C223.622 407.179 223.909 407.606 224.27 407.966C224.631 408.325 225.059 408.611 225.531 408.805C226.002 409 226.508 409.099 227.018 409.099H267.627C268.655 409.097 269.641 408.689 270.368 407.962C271.095 407.236 271.503 406.251 271.503 405.224C271.503 404.198 271.095 403.213 270.368 402.487C269.641 401.76 268.655 401.352 267.627 401.35H227.018Z" fill="#E6E6E6"/>
<path d="M189.418 364.04H193.55L184.953 372.531C183.451 374.009 181.427 374.837 179.319 374.837C177.21 374.837 175.186 374.009 173.684 372.531L165.089 364.04H169.22L175.751 370.491C176.702 371.426 177.984 371.951 179.319 371.951C180.655 371.951 181.937 371.426 182.888 370.491L189.418 364.04ZM169.168 387.652H165.036L173.686 379.108C175.187 377.631 177.211 376.803 179.32 376.803C181.429 376.803 183.453 377.631 184.954 379.108L193.604 387.652H189.472L182.888 381.149C181.937 380.213 180.655 379.689 179.319 379.689C177.984 379.689 176.702 380.213 175.751 381.149L169.168 387.652Z" fill="white"/>
<path d="M176.153 27.6554C175.427 27.6562 174.73 27.9446 174.216 28.4574C173.703 28.9702 173.414 29.6654 173.413 30.3905V123.679C173.414 124.404 173.703 125.099 174.216 125.612C174.73 126.125 175.427 126.413 176.153 126.414H494.87C495.596 126.413 496.293 126.125 496.807 125.612C497.32 125.099 497.609 124.404 497.61 123.679V30.3905C497.609 29.6654 497.32 28.9702 496.807 28.4574C496.293 27.9446 495.596 27.6562 494.87 27.6553L176.153 27.6554Z" fill="#E6E6E6"/>
<path d="M180.28 119.56H490.743V34.5096H180.28V119.56Z" fill="#323347"/>
<path d="M451.555 101.916C450.351 101.916 449.196 102.393 448.345 103.243C447.493 104.092 447.015 105.245 447.015 106.447C447.015 107.648 447.493 108.801 448.345 109.65C449.196 110.5 450.351 110.977 451.555 110.977H469.713C470.917 110.977 472.071 110.5 472.923 109.65C473.774 108.801 474.252 107.648 474.252 106.447C474.252 105.245 473.774 104.092 472.923 103.243C472.071 102.393 470.917 101.916 469.713 101.916H451.555Z" fill="#EF9444"/>
<path d="M474.252 93.1276H264.638V94.3196H474.252V93.1276Z" fill="#E6E6E6"/>
<path d="M220.822 103.424C235.425 103.424 247.263 91.609 247.263 77.0347C247.263 62.4604 235.425 50.6456 220.822 50.6456C206.22 50.6456 194.382 62.4604 194.382 77.0347C194.382 91.609 206.22 103.424 220.822 103.424Z" fill="#EF9444"/>
<path d="M264.969 86.4708L264.307 85.4789L286.089 70.9859L301.025 78.1418L322.51 64.4425L322.8 64.5656L365.248 82.6377L399.281 65.9517L432.33 79.3238L473.856 42.6144L474.648 43.5068L432.568 80.7062L399.328 67.2568L365.283 83.9486L322.622 65.7858L301.108 79.5037L286.185 72.3542L264.969 86.4708Z" fill="#EF9444"/>
<path d="M268.52 102.539C267.491 102.54 266.505 102.949 265.778 103.676C265.051 104.402 264.643 105.387 264.643 106.413C264.643 107.44 265.051 108.425 265.778 109.151C266.505 109.877 267.491 110.286 268.52 110.287H309.129C310.159 110.287 311.146 109.879 311.874 109.153C312.602 108.426 313.011 107.441 313.011 106.413C313.011 105.386 312.602 104.4 311.874 103.674C311.146 102.947 310.159 102.539 309.129 102.539H268.52Z" fill="#E6E6E6"/>
<path d="M231.461 73.9546C231.955 70.6523 229.436 68.8771 225.991 67.6928L227.108 63.2194L224.379 62.5408L223.291 66.8963C222.575 66.718 221.838 66.5497 221.106 66.3829L222.202 61.9987L219.475 61.3201L218.357 65.792C217.763 65.657 217.181 65.5236 216.615 65.3832L216.618 65.3693L212.856 64.4316L212.13 67.34C212.13 67.34 214.154 67.803 214.111 67.8316C214.489 67.8768 214.834 68.068 215.071 68.3641C215.309 68.6603 215.421 69.0378 215.383 69.4153L214.11 74.5115C214.206 74.5354 214.301 74.5658 214.393 74.6022L214.106 74.5309L212.321 81.6698C212.282 81.7944 212.218 81.9101 212.134 82.0101C212.05 82.1101 211.947 82.1926 211.83 82.2527C211.714 82.3128 211.587 82.3494 211.457 82.3603C211.327 82.3713 211.195 82.3565 211.071 82.3166C211.098 82.3562 209.088 81.8226 209.088 81.8226L207.733 84.9403L211.284 85.8237C211.945 85.9889 212.592 86.1618 213.229 86.3247L212.099 90.85L214.825 91.5286L215.944 87.0521C216.687 87.2538 217.41 87.4399 218.117 87.6152L217.003 92.0707L219.731 92.7494L220.86 88.2333C225.512 89.112 229.011 88.7576 230.482 84.5587C231.669 81.1773 230.424 79.2268 227.976 77.9541C229.759 77.5423 231.102 76.372 231.46 73.9546L231.461 73.9546ZM225.226 82.6788C224.382 86.0602 218.679 84.233 216.829 83.7739L218.327 77.7797C220.176 78.2403 226.106 79.1524 225.227 82.6788H225.226ZM226.069 73.9058C225.3 76.9816 220.552 75.4189 219.011 75.0358L220.37 69.5991C221.911 69.9823 226.871 70.6973 226.069 73.9058Z" fill="white"/>
<path d="M301.543 177.061C300.816 177.062 300.12 177.35 299.606 177.863C299.092 178.376 298.803 179.071 298.802 179.796V273.084C298.803 273.81 299.092 274.505 299.606 275.018C300.12 275.53 300.816 275.819 301.543 275.82H620.259C620.986 275.819 621.683 275.53 622.196 275.018C622.71 274.505 622.999 273.81 623 273.084V179.796C622.999 179.071 622.71 178.376 622.196 177.863C621.683 177.35 620.986 177.062 620.259 177.061L301.543 177.061Z" fill="#E6E6E6"/>
<path d="M305.67 268.965H616.132V183.915H305.67V268.965Z" fill="#323347"/>
<path d="M576.944 251.321C575.74 251.321 574.586 251.799 573.734 252.648C572.883 253.498 572.405 254.651 572.405 255.852C572.405 257.054 572.883 258.206 573.734 259.056C574.586 259.905 575.74 260.383 576.944 260.383H595.102C596.306 260.383 597.461 259.905 598.312 259.056C599.164 258.206 599.642 257.054 599.642 255.852C599.642 254.651 599.164 253.498 598.312 252.648C597.461 251.799 596.306 251.321 595.102 251.321H576.944Z" fill="#EF9444"/>
<path d="M599.642 242.533H390.028V243.725H599.642V242.533Z" fill="#E6E6E6"/>
<path d="M346.212 252.829C360.815 252.829 372.652 241.015 372.652 226.44C372.652 211.866 360.815 200.051 346.212 200.051C331.609 200.051 319.771 211.866 319.771 226.44C319.771 241.015 331.609 252.829 346.212 252.829Z" fill="#EF9444"/>
<path d="M390.359 235.877L389.696 234.885L411.478 220.392L426.415 227.548L447.899 213.848L448.19 213.971L490.637 232.044L524.671 215.358L557.72 228.729L599.246 192.02L600.038 192.913L557.958 230.112L524.718 216.663L490.672 233.354L448.012 215.192L426.498 228.91L411.575 221.761L390.359 235.877Z" fill="#EF9444"/>
<path d="M393.91 251.945C392.88 251.945 391.893 252.353 391.165 253.079C390.437 253.806 390.028 254.791 390.028 255.819C390.028 256.846 390.437 257.832 391.165 258.558C391.893 259.285 392.88 259.693 393.91 259.693H434.519C435.548 259.693 436.536 259.285 437.263 258.558C437.991 257.832 438.4 256.846 438.4 255.819C438.4 254.791 437.991 253.806 437.263 253.079C436.536 252.353 435.548 251.945 434.519 251.945H393.91Z" fill="#E6E6E6"/>
<path d="M346.209 243.832L356.913 228.788L346.209 235.095L335.512 228.788L346.208 243.832H346.209Z" fill="white"/>
<path d="M346.208 233.074H346.209L356.906 226.763L346.209 209.048H346.208L335.512 226.763L346.208 233.074Z" fill="white"/>
</g>
<defs>
<clipPath id="clip0">
<rect width="623" height="430" fill="white"/>
</clipPath>
</defs>
</svg>
